<svg width="800" height="248" viewBox="0 0 800 248" xmlns="http://www.w3.org/2000/svg"><mask id="satori_om-id"><rect x="0" y="0" width="800" height="248" fill="#fff"></rect></mask><rect x="0" y="0" width="800" height="248" fill="transparent"></rect><mask id="satori_om-id-0"><rect x="272" y="40" width="257" height="101" fill="#fff"></rect></mask><g><path fill="#1a1a1a" d="M338.1 153L322.2 153L322.2 153L322.2 132.8L272.7 132.8L272.7 118.3L323.5 72.4L338.1 72.4L338.1 116.8L349.1 116.8L349.1 132.8L338.1 132.8L338.1 153ZM322.2 97L298.2 116.8L298.2 116.8L322.2 116.8L322.2 97ZM376.0 153L376.0 153Q371.7 153 368.1 150.6Q364.5 148.2 362.3 144.3Q360.1 140.5 360.1 136.2L360.1 136.2L360.1 88.6Q360.1 84.2 362.3 80.5Q364.5 76.8 368.1 74.6Q371.7 72.4 376.0 72.4L376.0 72.4L423.8 72.4Q428.1 72.4 431.7 74.6Q435.3 76.8 437.5 80.5Q439.7 84.2 439.7 88.6L439.7 88.6L439.7 136.2Q439.7 140.5 437.5 144.3Q435.3 148.2 431.7 150.6Q428.1 153 423.8 153L423.8 153L376.0 153ZM423.8 102.9L384.1 136.1L384.1 136.1L423.1 136.1Q423.3 136.1 423.5 135.9Q423.8 135.8 423.8 135.4L423.8 135.4L423.8 102.9ZM376.0 89.4L376.0 121.9L376.0 121.9L415.7 88.7L376.7 88.7Q376.5 88.7 376.3 88.9Q376.0 89.0 376.0 89.4L376.0 89.4ZM513.2 153L497.3 153L497.3 153L497.3 132.8L447.8 132.8L447.8 118.3L498.7 72.4L513.2 72.4L513.2 116.8L524.2 116.8L524.2 132.8L513.2 132.8L513.2 153ZM497.3 97L473.4 116.8L473.4 116.8L497.3 116.8L497.3 97Z "></path></g><mask id="satori_om-id-1"><rect x="194" y="153" width="413" height="55" fill="#fff"></rect></mask><mask id="satori_om-id-1-0"><rect x="194" y="153" width="234" height="55" fill="#fff"></rect></mask><g><path fill="#6b6b6b" d="M213.1 197L208.3 197L208.3 197L208.3 170.1L194.9 170.1L194.9 165.3L226.6 165.3L226.6 170.1L213.1 170.1L213.1 197ZM267.0 197L237.9 197L237.9 165.3L267.0 165.3L267.0 170.1L242.7 170.1L242.7 178.7L262.2 178.7L262.2 183.6L242.7 183.6L242.7 192.2L267.0 192.2L267.0 197ZM311.2 197L285.3 197Q283.7 197 282.4 196.2Q281.1 195.5 280.3 194.2Q279.6 192.9 279.6 191.3L279.6 191.3L279.6 171.0Q279.6 169.5 280.3 168.2Q281.1 166.9 282.4 166.1Q283.7 165.3 285.3 165.3L285.3 165.3L311.2 165.3L311.2 170.1L285.9 170.1Q285.2 170.1 284.8 170.5Q284.3 171.0 284.3 171.7L284.3 171.7L284.3 190.6Q284.3 191.3 284.8 191.8Q285.2 192.2 285.9 192.2L285.9 192.2L311.2 192.2L311.2 197ZM328.5 197L323.8 197L323.8 165.3L328.5 165.3L328.5 178.7L351.4 178.7L351.4 165.3L356.2 165.3L356.2 197L351.4 197L351.4 183.6L328.5 183.6L328.5 197ZM394.8 197L390.0 197L390.0 165.3L419.1 165.3L419.1 170.1L394.8 170.1L394.8 178.7L414.3 178.7L414.3 183.6L394.8 183.6L394.8 197Z "></path></g><mask id="satori_om-id-1-1"><rect x="428" y="153" width="45" height="55" fill="#fff"></rect></mask><g><path fill="#6b6b6b" d="M456.3 197L436.1 197Q434.5 197 433.2 196.2Q431.9 195.5 431.1 194.2Q430.4 192.9 430.4 191.3L430.4 191.3L430.4 171.0Q430.4 169.5 431.1 168.2Q431.9 166.9 433.2 166.1Q434.5 165.3 436.1 165.3L436.1 165.3L456.3 165.3Q457.9 165.3 459.2 166.1Q460.5 166.9 461.3 168.2Q462.1 169.5 462.1 171.0L462.1 171.0L462.1 191.3Q462.1 192.9 461.3 194.2Q460.5 195.5 459.2 196.2Q457.9 197 456.3 197L456.3 197ZM436.2 192.2L436.2 192.2L456.2 192.2Q456.6 192.2 457.0 191.9Q457.3 191.6 457.3 191.1L457.3 191.1L457.3 171.2Q457.3 170.7 457.0 170.4Q456.6 170.1 456.2 170.1L456.2 170.1L436.2 170.1Q435.8 170.1 435.5 170.4Q435.1 170.7 435.1 171.2L435.1 171.2L435.1 191.1Q435.1 191.6 435.5 191.9Q435.8 192.2 436.2 192.2Z "></path></g><line x1="428" y1="183.65480000000002" x2="472.432" y2="183.65480000000002" stroke="#6b6b6b" stroke-width="4.4" stroke-linecap="square" transform=""></line><mask id="satori_om-id-1-2"><rect x="473" y="153" width="134" height="55" fill="#fff"></rect></mask><g><path fill="#6b6b6b" d="M481.1 197L481.1 197Q479.5 197 478.2 196.2Q476.9 195.5 476.1 194.2Q475.4 192.9 475.4 191.3L475.4 191.3L475.4 165.3L480.1 165.3L480.1 191.1Q480.1 191.6 480.5 191.9Q480.8 192.2 481.2 192.2L481.2 192.2L501.2 192.2Q501.6 192.2 502.0 191.9Q502.3 191.6 502.3 191.1L502.3 191.1L502.3 165.3L507.1 165.3L507.1 191.3Q507.1 192.9 506.3 194.2Q505.5 195.5 504.2 196.2Q502.9 197 501.3 197L501.3 197L481.1 197ZM524.6 197L519.9 197L519.9 165.3L525.6 165.3L546.8 190.6L546.8 165.3L551.6 165.3L551.6 197L545.9 197L524.6 171.7L524.6 197ZM590.5 197L564.6 197L564.6 165.3L590.5 165.3Q592.1 165.3 593.4 166.1Q594.7 166.9 595.5 168.2Q596.3 169.5 596.3 171.0L596.3 171.0L596.3 191.3Q596.3 192.9 595.5 194.2Q594.7 195.5 593.4 196.2Q592.1 197 590.5 197L590.5 197ZM570.4 192.2L570.4 192.2L590.4 192.2Q590.9 192.2 591.2 191.9Q591.5 191.6 591.5 191.1L591.5 191.1L591.5 171.2Q591.5 170.7 591.2 170.4Q590.9 170.1 590.4 170.1L590.4 170.1L570.4 170.1Q570.0 170.1 569.7 170.4Q569.3 170.7 569.3 171.2L569.3 171.2L569.3 191.1Q569.3 191.6 569.7 191.9Q570.0 192.2 570.4 192.2Z "></path></g></svg>